<svg xmlns="http://www.w3.org/2000/svg" width="1932" height="828" viewBox="0 0 1932 828" fill="none">
  <defs>
    <linearGradient id="bg" x1="158" y1="94" x2="1740" y2="770" gradientUnits="userSpaceOnUse">
      <stop stop-color="#241511"/>
      <stop offset="0.46" stop-color="#633627"/>
      <stop offset="1" stop-color="#E47A47"/>
    </linearGradient>
    <radialGradient id="glowA" cx="0" cy="0" r="1" gradientUnits="userSpaceOnUse" gradientTransform="translate(1524 204) rotate(138.051) scale(576.872 422.469)">
      <stop stop-color="#FFD6AB" stop-opacity="0.68"/>
      <stop offset="1" stop-color="#FFD6AB" stop-opacity="0"/>
    </radialGradient>
    <radialGradient id="glowB" cx="0" cy="0" r="1" gradientUnits="userSpaceOnUse" gradientTransform="translate(388 712) rotate(-22.853) scale(492.043 336.508)">
      <stop stop-color="#7EEAD4" stop-opacity="0.34"/>
      <stop offset="1" stop-color="#7EEAD4" stop-opacity="0"/>
    </radialGradient>
    <linearGradient id="panel" x1="1130" y1="104" x2="1718" y2="726" gradientUnits="userSpaceOnUse">
      <stop stop-color="#FFF7EE"/>
      <stop offset="1" stop-color="#F7E0CC"/>
    </linearGradient>
    <linearGradient id="panelSoft" x1="1070" y1="126" x2="1698" y2="708" gradientUnits="userSpaceOnUse">
      <stop stop-color="#F7E4D7"/>
      <stop offset="1" stop-color="#E7B48E"/>
    </linearGradient>
    <linearGradient id="heroCard" x1="1226" y1="214" x2="1524" y2="432" gradientUnits="userSpaceOnUse">
      <stop stop-color="#F1A36A"/>
      <stop offset="1" stop-color="#FFDAB3"/>
    </linearGradient>
    <filter id="shadow" x="968" y="66" width="858" height="760" filterUnits="userSpaceOnUse" color-interpolation-filters="sRGB">
      <feFlood flood-opacity="0" result="BackgroundImageFix"/>
      <feColorMatrix in="SourceAlpha" values="0 0 0 0 0 0 0 0 0 0 0 0 0 0 0 0 0 0 127 0" result="hardAlpha"/>
      <feOffset dy="28"/>
      <feGaussianBlur stdDeviation="34"/>
      <feComposite in2="hardAlpha" operator="out"/>
      <feColorMatrix values="0 0 0 0 0.145098 0 0 0 0 0.0823529 0 0 0 0 0.0588235 0 0 0 0.26 0"/>
      <feBlend in2="BackgroundImageFix" result="effect1_dropShadow_1_2"/>
      <feBlend in="SourceGraphic" in2="effect1_dropShadow_1_2" result="shape"/>
    </filter>
    <filter id="softShadow" x="1100" y="172" width="438" height="360" filterUnits="userSpaceOnUse" color-interpolation-filters="sRGB">
      <feFlood flood-opacity="0" result="BackgroundImageFix"/>
      <feColorMatrix in="SourceAlpha" values="0 0 0 0 0 0 0 0 0 0 0 0 0 0 0 0 0 0 127 0" result="hardAlpha"/>
      <feOffset dy="16"/>
      <feGaussianBlur stdDeviation="18"/>
      <feComposite in2="hardAlpha" operator="out"/>
      <feColorMatrix values="0 0 0 0 0.223529 0 0 0 0 0.113725 0 0 0 0 0.0784314 0 0 0 0.18 0"/>
      <feBlend in2="BackgroundImageFix" result="effect1_dropShadow_1_2"/>
      <feBlend in="SourceGraphic" in2="effect1_dropShadow_1_2" result="shape"/>
    </filter>
  </defs>

  <rect width="1932" height="828" rx="0" fill="url(#bg)"/>
  <rect width="1932" height="828" fill="url(#glowA)"/>
  <rect width="1932" height="828" fill="url(#glowB)"/>

  <circle cx="162" cy="132" r="8" fill="#FFF1D6" fill-opacity="0.88"/>
  <circle cx="188" cy="132" r="8" fill="#FFF1D6" fill-opacity="0.52"/>
  <circle cx="214" cy="132" r="8" fill="#FFF1D6" fill-opacity="0.32"/>

  <g transform="translate(144 166)">
    <rect width="122" height="122" rx="28" fill="#FFF8F1" fill-opacity="0.16"/>
    <g transform="translate(17 17)">
      <rect width="88" height="88" rx="22" fill="#FFF9F2"/>
      <rect x="10" y="19" width="34" height="44" rx="10" transform="rotate(-8 10 19)" fill="#FFEFE2"/>
      <rect x="40" y="15" width="34" height="44" rx="10" transform="rotate(8 40 15)" fill="#F7D5BF"/>
      <rect x="24" y="16" width="40" height="52" rx="12" fill="#FFF9F2"/>
      <rect x="29" y="24" width="30" height="20" rx="7" fill="#F2A168"/>
      <circle cx="36" cy="31" r="3.5" fill="#FFF1D8"/>
      <path d="M30 42L39 33L44.5 37.5L49.5 31.5L58 42H30Z" fill="#9E4A25" fill-opacity=".34"/>
      <rect x="29" y="49" width="24" height="4.5" rx="2.25" fill="#DD5E31"/>
      <rect x="29" y="57.5" width="18" height="4.5" rx="2.25" fill="#F2C18E"/>
      <rect x="49" y="57.5" width="10" height="4.5" rx="2.25" fill="#7BD8C0"/>
      <path d="M69 12L72.5 20L80.5 23.5L72.5 27L69 35L65.5 27L57.5 23.5L65.5 20L69 12Z" fill="#8EF3D2"/>
    </g>
  </g>

  <text x="144" y="344" fill="#FFF9F2" font-family="Apple SD Gothic Neo, Pretendard, sans-serif" font-size="88" font-weight="800" letter-spacing="-2">
    SNS 카드 뉴스 생성기
  </text>

  <text x="144" y="438" fill="#FFE7D2" font-family="Apple SD Gothic Neo, Pretendard, sans-serif" font-size="34" font-weight="500" letter-spacing="-0.6">
    이미지 몇 장만 올리면 SNS 카드뉴스를 빠르게 완성
  </text>

  <g transform="translate(144 506)">
    <rect width="188" height="58" rx="29" fill="#FFF2E5" fill-opacity="0.14"/>
    <text x="32" y="38" fill="#FFF8F1" font-family="Apple SD Gothic Neo, Pretendard, sans-serif" font-size="24" font-weight="700">이미지 업로드</text>

    <rect x="206" width="170" height="58" rx="29" fill="#FFF2E5" fill-opacity="0.14"/>
    <text x="238" y="38" fill="#FFF8F1" font-family="Apple SD Gothic Neo, Pretendard, sans-serif" font-size="24" font-weight="700">카피 편집</text>

    <rect x="394" width="188" height="58" rx="29" fill="#FFF2E5" fill-opacity="0.14"/>
    <text x="426" y="38" fill="#FFF8F1" font-family="Apple SD Gothic Neo, Pretendard, sans-serif" font-size="24" font-weight="700">PNG 저장</text>
  </g>

  <text x="144" y="666" fill="#F7D7BD" font-family="Apple SD Gothic Neo, Pretendard, sans-serif" font-size="28" font-weight="600" letter-spacing="-0.4">
    SNS 카드뉴스, 앱스토어 소개 이미지, 프로모션 카드까지 한 번에 제작
  </text>

  <g filter="url(#shadow)">
    <rect x="1068" y="112" width="606" height="604" rx="56" transform="rotate(-8 1068 112)" fill="url(#panelSoft)" fill-opacity="0.88"/>
    <rect x="1228" y="102" width="570" height="604" rx="56" transform="rotate(7 1228 102)" fill="#F3D3BC" fill-opacity="0.82"/>
    <rect x="1108" y="108" width="610" height="612" rx="64" fill="url(#panel)"/>

    <g filter="url(#softShadow)">
      <rect x="1180" y="182" width="392" height="296" rx="34" fill="url(#heroCard)"/>
      <circle cx="1260" cy="254" r="34" fill="#FFF2DA"/>
      <path d="M1218 410L1328 300L1402 362L1484 272L1570 410H1218Z" fill="#A65930" fill-opacity="0.3"/>
    </g>

    <rect x="1180" y="526" width="228" height="28" rx="14" fill="#DD6434"/>
    <rect x="1180" y="576" width="338" height="22" rx="11" fill="#E6B580"/>
    <rect x="1180" y="620" width="276" height="22" rx="11" fill="#EED0AF"/>
    <rect x="1478" y="620" width="94" height="22" rx="11" fill="#7BD8C0"/>

    <rect x="1268" y="146" width="198" height="54" rx="27" fill="#2A1A15"/>
    <text x="1314" y="181" fill="#FFF7EF" font-family="SF Pro Display, Apple SD Gothic Neo, Pretendard, sans-serif" font-size="24" font-weight="700">3 to 5 images</text>

    <rect x="1488" y="146" width="138" height="54" rx="27" fill="#FFF4E9"/>
    <text x="1531" y="181" fill="#7E432D" font-family="SF Pro Display, Apple SD Gothic Neo, Pretendard, sans-serif" font-size="24" font-weight="700">Card flow</text>
  </g>

  <g transform="translate(1642 158)">
    <path d="M48 0L64 38L102 54L64 70L48 108L32 70L-6 54L32 38L48 0Z" fill="#8EF3D2"/>
  </g>

  <g transform="translate(1026 692)">
    <path d="M34 0L46 28L74 40L46 52L34 80L22 52L-6 40L22 28L34 0Z" fill="#FFF0C9"/>
  </g>
</svg>
